<svg xmlns="http://www.w3.org/2000/svg" width="1600" height="900" viewBox="0 0 1600 900">
  <title>MacsyZones — organize your windows on macOS, the easy way</title>
  <desc>A dark GitHub-style social card with a tidy window grid snapping into zones.</desc>
  <rect width="1600" height="900" fill="#0d1117"/>
  <rect x="56" y="56" width="1488" height="788" rx="28" fill="#161b22" stroke="#30363d" stroke-width="2"/>
  <path d="M56 156H1544" stroke="#30363d" stroke-width="2"/>
  <circle cx="102" cy="106" r="8" fill="#ff7b72"/>
  <circle cx="130" cy="106" r="8" fill="#d29922"/>
  <circle cx="158" cy="106" r="8" fill="#3fb950"/>
  <text x="205" y="115" fill="#8b949e" font-family="system-ui, -apple-system, BlinkMacSystemFont, 'Segoe UI', sans-serif" font-size="22" letter-spacing="2">CHRIS COVERIES / MACOS UTILITY</text>
  <g font-family="system-ui, -apple-system, BlinkMacSystemFont, 'Segoe UI', sans-serif">
    <text x="126" y="310" fill="#8b949e" font-size="22" letter-spacing="4">WINDOWS, IN THEIR PLACE</text>
    <text x="120" y="416" fill="#f0f6fc" font-size="88" font-weight="700" letter-spacing="-3">MacsyZones</text>
    <text x="124" y="485" fill="#8b949e" font-size="30">organize your windows on macOS, the easy way</text>
    <rect x="124" y="554" width="214" height="5" rx="3" fill="#58a6ff"/>
    <text x="124" y="620" fill="#8b949e" font-size="21" font-family="ui-monospace, SFMono-Regular, Menlo, Monaco, Consolas, monospace">snap · arrange · focus</text>
  </g>

  <g transform="translate(850 202)">
    <rect x="0" y="0" width="588" height="506" rx="24" fill="#0d1117" stroke="#30363d" stroke-width="2"/>
    <rect x="27" y="27" width="534" height="452" rx="16" fill="#161b22" stroke="#21262d" stroke-width="2"/>
    <path d="M294 42V464M42 253H546" stroke="#58a6ff" stroke-opacity=".26" stroke-width="3" stroke-dasharray="8 12"/>
    <g stroke="#58a6ff" stroke-width="3">
      <rect x="58" y="64" width="211" height="165" rx="14" fill="#0d1117"/>
      <rect x="319" y="64" width="211" height="165" rx="14" fill="#0d1117"/>
      <rect x="58" y="276" width="211" height="165" rx="14" fill="#0d1117"/>
      <rect x="319" y="276" width="211" height="165" rx="14" fill="#0d1117"/>
    </g>
    <g stroke="#8b949e" stroke-width="2" opacity=".8">
      <path d="M58 101H269M319 101H530M58 313H269M319 313H530"/>
      <path d="M82 83h9M99 83h9M116 83h9M343 83h9M360 83h9M377 83h9M82 295h9M99 295h9M116 295h9M343 295h9M360 295h9M377 295h9" stroke-linecap="round"/>
    </g>
    <g fill="#58a6ff" font-family="ui-monospace, SFMono-Regular, Menlo, Monaco, Consolas, monospace" font-size="18" font-weight="700">
      <text x="78" y="145">ZONE 01</text><text x="339" y="145">ZONE 02</text>
      <text x="78" y="357">ZONE 03</text><text x="339" y="357">ZONE 04</text>
    </g>
    <g fill="none" stroke="#58a6ff" stroke-width="4" stroke-linecap="round" stroke-linejoin="round">
      <path d="M16 207h22l-9-9M38 207l-9 9"/>
      <path d="M572 270h-22l9-9M550 270l9 9"/>
    </g>
    <text x="294" y="502" text-anchor="middle" fill="#8b949e" font-family="ui-monospace, SFMono-Regular, Menlo, Monaco, Consolas, monospace" font-size="18">SNAP TO GRID</text>
  </g>
  <text x="120" y="790" fill="#8b949e" font-family="ui-monospace, SFMono-Regular, Menlo, Monaco, Consolas, monospace" font-size="18" letter-spacing="1">MACSYZONES / A CALMER DESKTOP</text>
</svg>
